<svg xmlns="http://www.w3.org/2000/svg" style="display:none">

  <!-- Dollar / Info Icon 1 -->
  <symbol id="dollar-circle" viewBox="0 0 24 24">
    <circle opacity="0.5" cx="12" cy="12" r="10" stroke="currentColor" stroke-width="1.5"/>
    <path d="M12 17V18" stroke="currentColor" stroke-width="1.5" stroke-linecap="round"/>
    <path d="M12 6V7" stroke="currentColor" stroke-width="1.5" stroke-linecap="round"/>
    <path d="M15 9.5C15 8.11929 13.6569 7 12 7C10.3431 7 9 8.11929 9 9.5C9 10.8807 10.3431 12 12 12C13.6569 12 15 13.1193 15 14.5C15 15.8807 13.6569 17 12 17C10.3431 17 9 15.8807 9 14.5"
          stroke="currentColor" stroke-width="1.5" stroke-linecap="round"/>
  </symbol>

  <!-- Warning / Alert Icon 2 -->
  <symbol id="warning-circle" viewBox="0 0 24 24">
    <path d="M12 16.99V17M12 7V14M21 12C21 16.9706 16.9706 21 12 21C7.02944 21 3 16.9706 3 12C3 7.02944 7.02944 3 12 3C16.9706 3 21 7.02944 21 12Z"
          stroke="currentColor" stroke-width="1.5" stroke-linecap="round" stroke-linejoin="round"/>
  </symbol>


  <symbol id="calendar" viewBox="0 0 24 24">
    <path fill="currentColor"
      d="M7 2v2H5a2 2 0 00-2 2v14a2 2 0 002 2h14a2 2 0 002-2V6a2 2 0 00-2-2h-2V2h-2v2H9V2H7zm12 8H5v10h14V10z"/>
  </symbol>


  <symbol id="email" viewBox="0 0 24 24">
    <path fill="currentColor"
      d="M20 4H4a2 2 0 00-2 2v12a2 2 0 002 2h16a2 2 0 002-2V6a2 2 0 00-2-2zm0 4l-8 5-8-5V6l8 5 8-5v2z"/>
  </symbol>

</svg>
